<svg width="38" height="38" viewBox="0 0 38 38" fill="none" xmlns="http://www.w3.org/2000/svg">
<path d="M17.9769 28.4999H20.2461V20.2769H28.4999V18.0077H20.2461V9.5H17.9769V18.0077H9.5V20.2769H17.9769V28.4999ZM19.0166 37.9999C16.3848 37.9999 13.9198 37.5012 11.6218 36.5039C9.32368 35.5066 7.3111 34.1447 5.584 32.4184C3.85687 30.692 2.49442 28.6791 1.49665 26.3795C0.498884 24.08 0 21.6129 0 18.9783C0 16.3565 0.498667 13.8921 1.496 11.5851C2.49333 9.27813 3.85517 7.26943 5.5815 5.559C7.30787 3.84853 9.32082 2.49442 11.6203 1.49665C13.9199 0.498883 16.387 0 19.0216 0C21.6434 0 24.1078 0.498667 26.4148 1.496C28.7218 2.49333 30.7305 3.84683 32.4409 5.5565C34.1514 7.2662 35.5055 9.27668 36.5033 11.588C37.501 13.8992 37.9999 16.3643 37.9999 18.9833C37.9999 21.6151 37.5012 24.0801 36.5039 26.3782C35.5066 28.6762 34.1531 30.6857 32.4434 32.4067C30.7337 34.1277 28.7232 35.4901 26.412 36.494C24.1007 37.4979 21.6356 37.9999 19.0166 37.9999ZM19.025 35.7307C23.6647 35.7307 27.6089 34.1012 30.8577 30.8423C34.1064 27.5833 35.7307 23.6275 35.7307 18.975C35.7307 14.3352 34.1095 10.391 30.867 7.14225C27.6245 3.89355 23.6689 2.2692 19 2.2692C14.3641 2.2692 10.4166 3.89043 7.15765 7.1329C3.89868 10.3754 2.2692 14.3311 2.2692 19C2.2692 23.6359 3.89868 27.5833 7.15765 30.8423C10.4166 34.1012 14.3724 35.7307 19.025 35.7307Z" fill="#45710F"/>
</svg>
