<svg width="20" height="20" viewBox="0 0 20 20" fill="none" xmlns="http://www.w3.org/2000/svg">
<path d="M8.44736 14.4352L15.5405 7.3421L14.6235 6.44131L8.44736 12.6276L5.32996 9.51013L4.43927 10.4109L8.44736 14.4352ZM10.0018 20C8.62946 20 7.3365 19.7375 6.12288 19.2126C4.90927 18.6877 3.84796 17.971 2.93895 17.0624C2.02993 16.1537 1.31285 15.0929 0.787713 13.8798C0.262571 12.6667 0 11.374 0 10.0018C0 8.61867 0.262457 7.31863 0.787371 6.10165C1.31228 4.88464 2.02904 3.82603 2.93764 2.9258C3.84626 2.02555 4.9071 1.31285 6.12017 0.787713C7.33326 0.262571 8.62595 0 9.99824 0C11.3813 0 12.6814 0.262457 13.8984 0.78737C15.1154 1.31228 16.174 2.02465 17.0742 2.92448C17.9744 3.82433 18.6871 4.88248 19.2123 6.09894C19.7374 7.31538 20 8.61514 20 9.99824C20 11.3705 19.7375 12.6635 19.2126 13.8771C18.6877 15.0907 17.9753 16.152 17.0755 17.061C16.1757 17.9701 15.1175 18.6871 13.9011 19.2123C12.6846 19.7374 11.3849 20 10.0018 20ZM10 18.8057C12.4507 18.8057 14.531 17.9481 16.2409 16.2328C17.9508 14.5176 18.8057 12.44 18.8057 10C18.8057 7.54926 17.9508 5.46895 16.2409 3.75909C14.531 2.04924 12.4507 1.19432 10 1.19432C7.56005 1.19432 5.48244 2.04924 3.76719 3.75909C2.05194 5.46895 1.19432 7.54926 1.19432 10C1.19432 12.44 2.05194 14.5176 3.76719 16.2328C5.48244 17.9481 7.56005 18.8057 10 18.8057Z" fill="#AF98B6"/>
</svg>
