<svg width="48" height="48" viewBox="0 0 48 48" fill="none" xmlns="http://www.w3.org/2000/svg">
<path d="M10.077 42C9.29268 42 8.61585 41.7153 8.04648 41.1459C7.47708 40.5765 7.19238 39.8997 7.19238 39.1154V9.88465C7.19238 9.10035 7.47708 8.4235 8.04648 7.8541C8.61585 7.2847 9.29268 7 10.077 7H23.8962V9.2692H10.077C9.92312 9.2692 9.78208 9.3333 9.65388 9.4615C9.52565 9.58973 9.46153 9.73078 9.46153 9.88465V39.1154C9.46153 39.2692 9.52565 39.4103 9.65388 39.5385C9.78208 39.6667 9.92312 39.7307 10.077 39.7307H23.8962V42H10.077ZM33.223 32.1153L31.5731 30.5038L36.4423 25.6346H18.7884V23.3654H36.3808L31.5115 18.4962L33.1423 16.8654L40.8076 24.5403L33.223 32.1153Z" fill="white"/>
</svg>
