<svg width="38" height="35" viewBox="0 0 38 35" fill="none" xmlns="http://www.w3.org/2000/svg">
<path d="M19 34.623L17.4115 33.1768C13.9757 30.0292 11.1379 27.3199 8.8981 25.0488C6.65833 22.7778 4.87757 20.7621 3.5558 19.0019C2.234 17.2416 1.31092 15.6521 0.78655 14.2332C0.262184 12.8144 0 11.3918 0 9.9654C0 7.22227 0.925001 4.9256 2.775 3.0754C4.625 1.22517 6.91153 0.300049 9.6346 0.300049C11.4961 0.300049 13.2224 0.769282 14.8134 1.70775C16.4044 2.64622 17.8 4.01033 19 5.8001C20.3487 3.936 21.7958 2.5533 23.3414 1.652C24.887 0.750698 26.5616 0.300049 28.3653 0.300049C31.0884 0.300049 33.3749 1.22517 35.2249 3.0754C37.0749 4.9256 37.9999 7.22227 37.9999 9.9654C37.9999 11.3918 37.7377 12.8144 37.2134 14.2332C36.689 15.6521 35.7666 17.2402 34.4463 18.9977C33.126 20.7552 31.3452 22.7709 29.104 25.0447C26.8628 27.3185 24.0242 30.0292 20.5884 33.1768L19 34.623ZM19 31.6154C22.3239 28.5725 25.0593 25.9645 27.206 23.7913C29.3527 21.6181 31.0582 19.7166 32.3226 18.0869C33.587 16.4572 34.4711 15.0083 34.975 13.7402C35.4788 12.4722 35.7307 11.2163 35.7307 9.9726C35.7307 7.8319 35.0371 6.06283 33.65 4.6654C32.2628 3.26797 30.505 2.56925 28.3766 2.56925C26.6719 2.56925 25.1048 3.07822 23.6752 4.09615C22.2455 5.11412 20.9974 6.61796 19.9307 8.6077H18.0385C16.9795 6.63846 15.7353 5.13975 14.3059 4.11155C12.8765 3.08335 11.3157 2.56925 9.62335 2.56925C7.50775 2.56925 5.75317 3.26797 4.3596 4.6654C2.966 6.06283 2.2692 7.83688 2.2692 9.98755C2.2692 11.2293 2.52215 12.4876 3.02805 13.7624C3.53395 15.0372 4.41472 16.4936 5.67035 18.1315C6.92598 19.7695 8.63778 21.6692 10.8058 23.8307C12.9737 25.9923 15.7051 28.5872 19 31.6154Z" fill="#F5F5F5"/>
</svg>
